<svg width="70" height="70" viewBox="0 0 70 70" fill="none" xmlns="http://www.w3.org/2000/svg">
<path d="M36.0938 5.46875V18.7042C35.3872 18.5588 34.6128 18.5588 33.9062 18.7042V5.46875H1.09375V64.5312H33.9062V51.2958C34.6128 51.4412 35.3872 51.4412 36.0938 51.2958V64.5312H68.9062V5.46875H36.0938ZM35 20.7812C36.8091 20.7812 38.2812 22.2534 38.2812 24.0625C38.2812 25.8716 36.8091 27.3438 35 27.3438C33.1909 27.3438 31.7188 25.8716 31.7188 24.0625C31.7188 22.2534 33.1909 20.7812 35 20.7812ZM38.2812 41.4761V28.7569L44.905 35.455L38.2812 41.4761ZM36.0938 29.4208V40.5781C35.7405 40.5059 35.3741 40.4688 35 40.4688C34.6259 40.4688 34.2595 40.5059 33.9062 40.5792V29.4208C34.6128 29.5662 35.3872 29.5662 36.0938 29.4208ZM31.7188 41.4761L24.5952 35L31.7188 28.5239V41.4761ZM31.7188 62.3438H3.28125V7.65625H31.7188V19.6897C30.3909 20.6883 29.5312 22.2764 29.5312 24.0625C29.5312 25.0819 29.8189 26.0323 30.3067 26.8505L22.9688 33.5213L15.6209 26.8417C16.1087 26.0236 16.4062 25.0808 16.4062 24.0625C16.4062 21.047 13.953 18.5938 10.9375 18.5938C7.92203 18.5938 5.46875 21.047 5.46875 24.0625C5.46875 27.078 7.92203 29.5312 10.9375 29.5312C12.1428 29.5312 13.2475 29.1266 14.1531 28.4638L21.3423 35L14.1531 41.5363C13.2475 40.8734 12.1428 40.4688 10.9375 40.4688C7.92203 40.4688 5.46875 42.922 5.46875 45.9375C5.46875 48.953 7.92203 51.4062 10.9375 51.4062C13.953 51.4062 16.4062 48.953 16.4062 45.9375C16.4062 44.9192 16.1077 43.9764 15.6209 43.1583L22.9688 36.4788L30.3067 43.1495C29.8189 43.9677 29.5312 44.9181 29.5312 45.9375C29.5312 47.7236 30.3909 49.3117 31.7188 50.3103V62.3438ZM10.9375 27.3438C9.12844 27.3438 7.65625 25.8716 7.65625 24.0625C7.65625 22.2534 9.12844 20.7812 10.9375 20.7812C12.7466 20.7812 14.2188 22.2534 14.2188 24.0625C14.2188 25.8716 12.7466 27.3438 10.9375 27.3438ZM14.2188 45.9375C14.2188 47.7466 12.7466 49.2188 10.9375 49.2188C9.12844 49.2188 7.65625 47.7466 7.65625 45.9375C7.65625 44.1284 9.12844 42.6562 10.9375 42.6562C12.7466 42.6562 14.2188 44.1284 14.2188 45.9375ZM35 49.2188C33.1909 49.2188 31.7188 47.7466 31.7188 45.9375C31.7188 44.1284 33.1909 42.6562 35 42.6562C36.8091 42.6562 38.2812 44.1284 38.2812 45.9375C38.2812 47.7466 36.8091 49.2188 35 49.2188ZM66.7188 62.3438H38.2812V50.3103C39.6091 49.3117 40.4688 47.7236 40.4688 45.9375C40.4688 44.9181 40.1811 43.9677 39.6933 43.1495L46.445 37.0114L56.0875 46.7611C55.895 47.1778 55.7812 47.6372 55.7812 48.125C55.7812 49.9341 57.2534 51.4062 59.0625 51.4062C60.8716 51.4062 62.3438 49.9341 62.3438 48.125C62.3438 46.3159 60.8716 44.8438 59.0625 44.8438C58.5408 44.8438 58.053 44.9772 57.6144 45.1948L48.0648 35.5381L55.8469 28.4627C56.7525 29.1266 57.8572 29.5312 59.0625 29.5312C62.078 29.5312 64.5312 27.078 64.5312 24.0625C64.5312 21.047 62.078 18.5938 59.0625 18.5938C56.047 18.5938 53.5938 21.047 53.5938 24.0625C53.5938 25.0808 53.8923 26.0247 54.3791 26.8417L46.5248 33.9817L39.6112 26.9905C40.1516 26.1428 40.4688 25.1398 40.4688 24.0625C40.4688 22.2764 39.6091 20.6883 38.2812 19.6897V7.65625H66.7188V62.3438ZM59.0625 47.0312C59.6652 47.0312 60.1562 47.5213 60.1562 48.125C60.1562 48.7287 59.6652 49.2188 59.0625 49.2188C58.4598 49.2188 57.9688 48.7287 57.9688 48.125C57.9688 47.5213 58.4598 47.0312 59.0625 47.0312ZM55.7812 24.0625C55.7812 22.2534 57.2534 20.7812 59.0625 20.7812C60.8716 20.7812 62.3438 22.2534 62.3438 24.0625C62.3438 25.8716 60.8716 27.3438 59.0625 27.3438C57.2534 27.3438 55.7812 25.8716 55.7812 24.0625Z" fill="black"/>
<path d="M5.46875 14.2188H7.65625V16.4062H5.46875V14.2188Z" fill="black"/>
<path d="M9.84375 14.2188H29.5312V16.4062H9.84375V14.2188Z" fill="black"/>
<path d="M5.46875 60.1562H29.5312V53.5938H5.46875V60.1562ZM7.65625 55.7812H27.3438V57.9688H7.65625V55.7812Z" fill="black"/>
<path d="M64.5312 9.84375H40.4688V16.4062H64.5312V9.84375ZM62.3438 14.2188H42.6562V12.0312H62.3438V14.2188Z" fill="black"/>
<path d="M5.46875 9.84375H29.5312V12.0312H5.46875V9.84375Z" fill="black"/>
<path d="M40.4688 53.5938H42.6562V55.7812H40.4688V53.5938Z" fill="black"/>
<path d="M44.8438 53.5938H64.5312V55.7812H44.8438V53.5938Z" fill="black"/>
<path d="M40.4688 57.9688H64.5312V60.1562H40.4688V57.9688Z" fill="black"/>
</svg>
