<svg width="20" height="20" viewBox="0 0 20 20" fill="none" xmlns="http://www.w3.org/2000/svg">
<g clip-path="url(#clip0)">
<path d="M19.8239 3.97363L13.7583 10.0002L19.8239 16.0267C19.9335 15.7975 20.0001 15.5441 20.0001 15.2736V4.72672C20.0001 4.45613 19.9335 4.20281 19.8239 3.97363Z" fill="#F2264D"/>
<path d="M18.2421 2.96875H1.75772C1.48714 2.96875 1.23382 3.03527 1.00464 3.14492L8.7571 10.8583C9.44257 11.5438 10.5573 11.5438 11.2427 10.8583L18.9952 3.14492C18.766 3.03527 18.5127 2.96875 18.2421 2.96875Z" fill="#F2264D"/>
<path d="M0.176172 3.97363C0.0665234 4.20281 0 4.45613 0 4.72672V15.2736C0 15.5442 0.0665234 15.7975 0.176172 16.0267L6.24176 10.0002L0.176172 3.97363Z" fill="#F2264D"/>
<path d="M12.9296 10.8286L12.0713 11.6869C10.9291 12.8291 9.07066 12.8291 7.92851 11.6869L7.07022 10.8286L1.00464 16.8551C1.23382 16.9648 1.48714 17.0313 1.75772 17.0313H18.2421C18.5127 17.0313 18.766 16.9648 18.9952 16.8551L12.9296 10.8286Z" fill="#F2264D"/>
</g>
<defs>
<clipPath id="clip0">
<rect width="20" height="20" fill="white"/>
</clipPath>
</defs>
</svg>
