<svg width="27" height="27" viewBox="0 0 27 27" fill="none" xmlns="http://www.w3.org/2000/svg">
<path d="M26.91 16.9421L26.8105 16.6421C26.5747 15.9412 25.8019 15.2102 25.092 15.0176L22.4644 14.2997C21.7518 14.1058 20.7354 14.3665 20.2141 14.8879L19.2631 15.839C15.8071 14.905 13.097 12.1943 12.1644 8.73835L13.1154 7.78717C13.6368 7.26573 13.8974 6.25045 13.7035 5.53776L12.987 2.90841C12.7932 2.19702 12.061 1.42409 11.3615 1.19088L11.0616 1.09001C10.3608 0.856795 9.36138 1.09265 8.84008 1.61405L7.41757 3.03812C7.16344 3.29095 7.00102 4.01412 7.00102 4.01676C6.95127 8.53393 8.72218 12.886 11.9169 16.0813C15.1037 19.2687 19.4387 21.0374 23.9419 20.9994C23.9655 20.9994 24.7094 20.8396 24.9636 20.5867L26.3861 19.1639C26.9074 18.6425 27.1432 17.643 26.91 16.9421Z" fill="#F2264D"/>
</svg>
